<svg width="25" height="24" viewBox="0 0 25 24" fill="none" xmlns="http://www.w3.org/2000/svg">
<path fill-rule="evenodd" clip-rule="evenodd" d="M11.0048 6.28069C10.7723 5.97069 10.3326 5.90787 10.0226 6.14036L6.28065 8.94682C6.10398 9.07932 6 9.28727 6 9.50811C6 9.72894 6.10398 9.93689 6.28065 10.0694L10.0226 12.8758C10.3326 13.1083 10.7723 13.0455 11.0048 12.7355C11.2373 12.4255 11.1745 11.9858 10.8645 11.7533L8.80645 10.2097H16.0565C17.7356 10.2097 19.0968 11.5709 19.0968 13.25C19.0968 14.9292 17.7356 16.2904 16.0565 16.2904H6.70161C6.31412 16.2904 6 16.6045 6 16.992C6 17.3795 6.31412 17.6936 6.70161 17.6936H16.0565C18.5106 17.6936 20.5 15.7041 20.5 13.25C20.5 10.7959 18.5106 8.80649 16.0565 8.80649H8.80645L10.8645 7.26294C11.1745 7.03045 11.2373 6.59068 11.0048 6.28069Z" fill="#28303F"/>
</svg>
