<svg width="26" height="26" viewBox="0 0 26 26" fill="none" xmlns="http://www.w3.org/2000/svg">
<path d="M4.33333 16.6111C4.51023 16.6111 4.68097 16.6761 4.81316 16.7936C4.94535 16.9112 5.0298 17.0732 5.0505 17.2488L5.05556 17.3333V20.9444H8.66667C8.85075 20.9446 9.0278 21.0151 9.16165 21.1415C9.29551 21.2679 9.37606 21.4406 9.38685 21.6243C9.39763 21.8081 9.33785 21.9891 9.2197 22.1302C9.10155 22.2714 8.93396 22.3621 8.75117 22.3838L8.66667 22.3889H5.05556C4.69114 22.389 4.34015 22.2514 4.07294 22.0036C3.80573 21.7558 3.64205 21.4162 3.61472 21.0528L3.61111 20.9444V17.3333C3.61111 17.1418 3.6872 16.9581 3.82264 16.8226C3.95809 16.6872 4.14179 16.6111 4.33333 16.6111ZM21.6667 16.6111C21.8436 16.6111 22.0143 16.6761 22.1465 16.7936C22.2787 16.9112 22.3631 17.0732 22.3838 17.2488L22.3889 17.3333V20.9444C22.3888 21.3087 22.2511 21.6595 22.0033 21.9266C21.7556 22.1937 21.416 22.3572 21.0528 22.3846L20.9444 22.3889H17.3333C17.1493 22.3887 16.9722 22.3182 16.8383 22.1918C16.7045 22.0655 16.6239 21.8928 16.6132 21.709C16.6024 21.5252 16.6622 21.3443 16.7803 21.2031C16.8985 21.062 17.066 20.9712 17.2488 20.9495L17.3333 20.9444H20.9444V17.3333C20.9444 17.1418 21.0205 16.9581 21.156 16.8226C21.2914 16.6872 21.4751 16.6111 21.6667 16.6111ZM18.0556 15.1667V18.0556H15.1667V15.1667H18.0556ZM10.8333 15.1667V18.0556H7.94444V15.1667H10.8333ZM13.7222 16.6111V18.0556H12.2778V16.6111H13.7222ZM15.1667 10.8333V15.1667H10.8333V13.7222H13.7222V12.2778H10.8333V13.7222H9.38889V12.2778H10.8333V10.8333H15.1667ZM18.0556 12.2778V13.7222H16.6111V12.2778H18.0556ZM10.8333 7.94444V10.8333H7.94444V7.94444H10.8333ZM18.0556 7.94444V10.8333H15.1667V7.94444H18.0556ZM13.7222 7.94444V9.38889H12.2778V7.94444H13.7222ZM17.3333 3.61111H20.9444C21.3087 3.61118 21.6595 3.74889 21.9266 3.99666C22.1937 4.24443 22.3572 4.58396 22.3846 4.94722L22.3889 5.05556V8.66667C22.3887 8.85075 22.3182 9.0278 22.1918 9.16165C22.0655 9.29551 21.8928 9.37606 21.709 9.38685C21.5252 9.39763 21.3443 9.33785 21.2031 9.2197C21.062 9.10155 20.9712 8.93396 20.9495 8.75117L20.9444 8.66667V5.05556H17.3333C17.1493 5.05535 16.9722 4.98486 16.8383 4.8585C16.7045 4.73213 16.6239 4.55942 16.6132 4.37566C16.6024 4.1919 16.6622 4.01095 16.7803 3.86979C16.8985 3.72863 17.066 3.63791 17.2488 3.61617L17.3333 3.61111H20.9444H17.3333ZM5.05556 3.61111H8.66667C8.85075 3.61131 9.0278 3.6818 9.16165 3.80817C9.29551 3.93453 9.37606 4.10724 9.38685 4.29101C9.39763 4.47477 9.33785 4.65572 9.2197 4.79688C9.10155 4.93804 8.93396 5.02876 8.75117 5.0505L8.66667 5.05556H5.05556V8.66667C5.05535 8.85075 4.98486 9.0278 4.8585 9.16165C4.73213 9.29551 4.55942 9.37606 4.37566 9.38685C4.1919 9.39763 4.01095 9.33785 3.86979 9.2197C3.72863 9.10155 3.63791 8.93396 3.61617 8.75117L3.61111 8.66667V5.05556C3.611 4.69114 3.74863 4.34015 3.99641 4.07294C4.2442 3.80573 4.58383 3.64205 4.94722 3.61472L5.05556 3.61111H8.66667H5.05556Z" fill="#28303F"/>
</svg>
