<svg width="22" height="22" viewBox="0 0 22 22" fill="none" xmlns="http://www.w3.org/2000/svg">
<g clip-path="url(#clip0_382_2783)">
<path d="M0.96014 0.0147838C1.35311 -0.0382472 1.75159 0.0523552 2.08736 0.27108L13.5357 7.03546L10.6384 10.0836L0.96014 0.0147838ZM0.0794993 0.930127C0.0242889 1.12941 -0.0024164 1.33605 0.000241564 1.54341V20.4544C-0.0024164 20.6618 0.0242889 20.8684 0.0794993 21.0677L9.76655 10.9989L0.0794993 0.930127ZM10.6472 11.9142L0.96014 21.983C1.35329 22.0408 1.75335 21.9499 2.08736 21.7267L13.5357 14.9623L10.6472 11.9142ZM18.1502 9.77234L14.6805 7.72197L11.5102 10.9989L14.6717 14.285L18.1414 12.2346C19.2863 11.5573 19.2863 10.4405 18.1414 9.76319L18.1502 9.77234Z" fill="#878B90"/>
</g>
<defs>
<clipPath id="clip0_382_2783">
<rect width="22" height="22" fill="white"/>
</clipPath>
</defs>
</svg>
