<svg width="25" height="24" viewBox="0 0 25 24" fill="none" xmlns="http://www.w3.org/2000/svg">
<path d="M16.0303 10.7967C16.3232 10.5038 16.3232 10.0289 16.0303 9.73603C15.7374 9.44313 15.2626 9.44313 14.9697 9.73603L16.0303 10.7967ZM14.2071 11.5593L14.7374 12.0896V12.0896L14.2071 11.5593ZM14.2071 12.9735L14.7374 12.4431L14.2071 12.9735ZM14.9697 14.7967C15.2626 15.0896 15.7374 15.0896 16.0303 14.7967C16.3232 14.5038 16.3232 14.0289 16.0303 13.736L14.9697 14.7967ZM14.5 11.5164C14.0858 11.5164 13.75 11.8521 13.75 12.2664C13.75 12.6806 14.0858 13.0164 14.5 13.0164V11.5164ZM20.5 13.0164C20.9142 13.0164 21.25 12.6806 21.25 12.2664C21.25 11.8521 20.9142 11.5164 20.5 11.5164V13.0164ZM3.75 17.2663C3.75 17.6805 4.08579 18.0163 4.5 18.0163C4.91421 18.0163 5.25 17.6805 5.25 17.2663H3.75ZM17.25 17.2663C17.25 16.8521 16.9142 16.5163 16.5 16.5163C16.0858 16.5163 15.75 16.8521 15.75 17.2663H17.25ZM15.75 7.26633C15.75 7.68054 16.0858 8.01633 16.5 8.01633C16.9142 8.01633 17.25 7.68054 17.25 7.26633H15.75ZM5.25 7.26633C5.25 6.85212 4.91421 6.51633 4.5 6.51633C4.08579 6.51633 3.75 6.85212 3.75 7.26633H5.25ZM5.3906 19.8601L5.80662 19.236L5.3906 19.8601ZM7.3906 21.1934L6.97458 21.8174L7.3906 21.1934ZM7.3906 3.33926L6.97458 2.71522L7.3906 3.33926ZM5.3906 4.6726L4.97457 4.04856L5.3906 4.6726ZM10.5 4.51633C10.0858 4.51633 9.75 4.85212 9.75 5.26633C9.75 5.68054 10.0858 6.01633 10.5 6.01633V4.51633ZM10.5 18.5163C10.0858 18.5163 9.75 18.8521 9.75 19.2663C9.75 19.6805 10.0858 20.0163 10.5 20.0163V18.5163ZM14.9697 9.73603L13.6768 11.0289L14.7374 12.0896L16.0303 10.7967L14.9697 9.73603ZM13.6768 13.5038L14.9697 14.7967L16.0303 13.736L14.7374 12.4431L13.6768 13.5038ZM13.6768 11.0289C12.9934 11.7123 12.9934 12.8204 13.6768 13.5038L14.7374 12.4431C14.6398 12.3455 14.6398 12.1872 14.7374 12.0896L13.6768 11.0289ZM14.5 13.0164L20.5 13.0164V11.5164L14.5 11.5164V13.0164ZM5.25 17.2663V7.26633H3.75V17.2663H5.25ZM15.75 17.2663C15.75 17.9567 15.1904 18.5163 14.5 18.5163V20.0163C16.0188 20.0163 17.25 18.7851 17.25 17.2663H15.75ZM14.5 6.01633C15.1904 6.01633 15.75 6.57597 15.75 7.26633H17.25C17.25 5.74755 16.0188 4.51633 14.5 4.51633V6.01633ZM5.80662 5.29663L7.80663 3.9633L6.97458 2.71522L4.97457 4.04856L5.80662 5.29663ZM9.75 5.00336V19.5293H11.25V5.00336H9.75ZM7.80663 20.5694L5.80662 19.236L4.97457 20.4841L6.97458 21.8174L7.80663 20.5694ZM5.25 18.196V6.3367H3.75V18.196H5.25ZM5.80662 19.236C5.45888 19.0042 5.25 18.6139 5.25 18.196H3.75C3.75 19.1154 4.20953 19.9741 4.97457 20.4841L5.80662 19.236ZM9.75 19.5293C9.75 20.5277 8.63732 21.1232 7.80663 20.5694L6.97458 21.8174C8.8021 23.0358 11.25 21.7257 11.25 19.5293H9.75ZM7.80663 3.9633C8.63732 3.4095 9.75 4.00499 9.75 5.00336H11.25C11.25 2.80695 8.8021 1.49687 6.97458 2.71522L7.80663 3.9633ZM4.97457 4.04856C4.20953 4.55859 3.75 5.41723 3.75 6.3367H5.25C5.25 5.91876 5.45888 5.52847 5.80662 5.29663L4.97457 4.04856ZM10.5 6.01633H14.5V4.51633H10.5V6.01633ZM14.5 18.5163H10.5V20.0163H14.5V18.5163Z" fill="white"/>
</svg>
