<svg width="18" height="19" viewBox="0 0 18 19" fill="none" xmlns="http://www.w3.org/2000/svg">
<circle cx="9" cy="5.75" r="0.75" fill="#CED1D5"/>
<path d="M8.25 7.25C7.83579 7.25 7.5 7.58579 7.5 8C7.5 8.41421 7.83579 8.75 8.25 8.75V7.25ZM9 8H9.75C9.75 7.58579 9.41421 7.25 9 7.25V8ZM8.25 13.25C8.25 13.6642 8.58579 14 9 14C9.41421 14 9.75 13.6642 9.75 13.25H8.25ZM15.75 9.5C15.75 13.2279 12.7279 16.25 9 16.25V17.75C13.5563 17.75 17.25 14.0563 17.25 9.5H15.75ZM9 16.25C5.27208 16.25 2.25 13.2279 2.25 9.5H0.75C0.75 14.0563 4.44365 17.75 9 17.75V16.25ZM2.25 9.5C2.25 5.77208 5.27208 2.75 9 2.75V1.25C4.44365 1.25 0.75 4.94365 0.75 9.5H2.25ZM9 2.75C12.7279 2.75 15.75 5.77208 15.75 9.5H17.25C17.25 4.94365 13.5563 1.25 9 1.25V2.75ZM8.25 8.75H9V7.25H8.25V8.75ZM8.25 8V13.25H9.75V8H8.25Z" fill="#CED1D5"/>
</svg>
