<svg width="30" height="30" viewBox="0 0 30 30" fill="none" xmlns="http://www.w3.org/2000/svg">
<path fill-rule="evenodd" clip-rule="evenodd" d="M10.0171 0.864419C8.76606 1.30684 6.98728 2.24878 6.06452 2.95712C4.40326 4.23332 4.42373 4.25059 8.16934 4.69002C10.2507 4.93414 13.991 6.10292 16.4825 7.28748C19.7292 8.83109 21.0113 9.15259 21.0113 8.42322C21.0113 7.86362 20.5473 6.30423 19.9794 4.95818C19.4115 3.61287 18.3636 1.9333 17.6501 1.22647C16.9374 0.520393 15.4399 -0.0309495 14.3231 0.00134984C13.2054 0.0336492 11.2682 0.422744 10.0171 0.864419ZM20.5276 3.88554C21.5739 5.97147 22.226 8.96254 22.4102 12.5177C22.5771 15.7244 22.991 17.775 23.4187 17.5129C23.8175 17.2687 25.1451 15.6996 26.3689 14.026C27.5927 12.3532 28.5935 10.2155 28.5935 9.27652C28.5935 8.33684 27.6996 6.51681 26.6078 5.23084C25.5152 3.94488 23.656 2.39751 22.4755 1.79284C21.2941 1.18816 20.0128 0.693157 19.6276 0.693157C19.2424 0.693157 19.6473 2.12935 20.5276 3.88554ZM4.89231 5.80772C3.50704 5.96922 2.42582 6.76994 1.6911 8.17609C1.0815 9.34488 0.377108 11.6036 0.125379 13.196C-0.126351 14.7884 0.0131619 16.9367 0.434733 17.9696C0.856303 19.0024 1.00039 19.9503 1.02693 19.3216C1.05271 18.6929 2.33104 16.3185 3.595 14.7997C4.85819 13.2809 7.58779 10.9501 9.66 9.6198C11.7322 8.28952 14.0095 7.01819 13.8184 6.82815C13.6266 6.63886 11.438 6.29822 9.8579 6.03682C8.27701 5.77618 6.04253 5.67252 4.89231 5.80772ZM27.6132 13.9066C26.4417 15.6928 23.4634 18.4818 20.9514 20.1434L16.4074 23.1495L18.9323 23.6189C20.3213 23.8766 22.7901 23.9787 24.4195 23.8458C26.8238 23.649 27.6465 23.1525 28.7854 21.2138C29.793 19.4981 30.1244 17.6744 29.9598 14.7501L29.7309 10.6759L27.6132 13.9066ZM4.79753 14.9988C3.62457 16.3794 2.35151 18.3249 1.96937 19.3216C1.44089 20.6985 1.64409 21.7283 2.81555 23.6054C3.66324 24.965 5.20622 26.628 6.24422 27.3018C7.28147 27.9748 9.01173 28.8582 10.0876 29.2631L12.0439 29.9999L10.3606 27.3018C9.34155 25.6688 8.33312 22.2135 7.80388 18.5457L6.93041 12.4877L4.79753 14.9988ZM8.8798 20.5437C8.8798 20.6767 9.40069 22.2473 10.0368 24.0351C10.6737 25.8221 11.7504 27.893 12.429 28.6359C13.1213 29.393 14.6961 29.9804 16.0109 29.9714C17.3014 29.9624 19.7224 29.3397 21.3904 28.5885C23.0585 27.8366 24.8176 26.7452 25.2991 26.1631C26.0292 25.2812 25.572 25.0934 22.5535 25.0341C20.2114 24.9875 17.1588 24.1402 13.906 22.6319C11.1416 21.3505 8.8798 20.4108 8.8798 20.5437Z" fill="#F94E1C"/>
</svg>
