<svg width="165" height="30" viewBox="0 0 165 30" fill="none" xmlns="http://www.w3.org/2000/svg">
<path fill-rule="evenodd" clip-rule="evenodd" d="M10.0171 0.864419C8.76606 1.30684 6.98728 2.24878 6.06452 2.95712C4.40326 4.23332 4.42373 4.25059 8.16934 4.69002C10.2507 4.93414 13.991 6.10292 16.4825 7.28748C19.7292 8.83109 21.0113 9.15259 21.0113 8.42322C21.0113 7.86362 20.5473 6.30423 19.9794 4.95818C19.4115 3.61287 18.3636 1.9333 17.6501 1.22647C16.9374 0.520393 15.4399 -0.0309495 14.3231 0.00134984C13.2054 0.0336492 11.2682 0.422744 10.0171 0.864419ZM20.5276 3.88554C21.5739 5.97147 22.226 8.96254 22.4102 12.5177C22.5771 15.7244 22.991 17.775 23.4187 17.5129C23.8175 17.2687 25.1451 15.6996 26.3689 14.026C27.5927 12.3532 28.5935 10.2155 28.5935 9.27652C28.5935 8.33684 27.6996 6.51681 26.6078 5.23084C25.5152 3.94488 23.656 2.39751 22.4755 1.79284C21.2941 1.18816 20.0128 0.693157 19.6276 0.693157C19.2424 0.693157 19.6473 2.12935 20.5276 3.88554ZM4.89231 5.80772C3.50704 5.96922 2.42582 6.76994 1.6911 8.17609C1.0815 9.34488 0.377108 11.6036 0.125379 13.196C-0.126351 14.7884 0.0131619 16.9367 0.434733 17.9696C0.856303 19.0024 1.00039 19.9503 1.02693 19.3216C1.05271 18.6929 2.33104 16.3185 3.595 14.7997C4.85819 13.2809 7.58779 10.9501 9.66 9.6198C11.7322 8.28952 14.0095 7.01819 13.8184 6.82815C13.6266 6.63886 11.438 6.29822 9.8579 6.03682C8.27701 5.77618 6.04253 5.67252 4.89231 5.80772ZM27.6132 13.9066C26.4417 15.6928 23.4634 18.4818 20.9514 20.1434L16.4074 23.1495L18.9323 23.6189C20.3213 23.8766 22.7901 23.9787 24.4195 23.8458C26.8238 23.649 27.6465 23.1525 28.7854 21.2138C29.793 19.4981 30.1244 17.6744 29.9598 14.7501L29.7309 10.6759L27.6132 13.9066ZM4.79753 14.9988C3.62457 16.3794 2.35151 18.3249 1.96937 19.3216C1.44089 20.6985 1.64409 21.7283 2.81555 23.6054C3.66324 24.965 5.20622 26.628 6.24422 27.3018C7.28147 27.9748 9.01173 28.8582 10.0876 29.2631L12.0439 29.9999L10.3606 27.3018C9.34155 25.6688 8.33312 22.2135 7.80388 18.5457L6.93041 12.4877L4.79753 14.9988ZM8.8798 20.5437C8.8798 20.6767 9.40069 22.2473 10.0368 24.0351C10.6737 25.8221 11.7504 27.893 12.429 28.6359C13.1213 29.393 14.6961 29.9804 16.0109 29.9714C17.3014 29.9624 19.7224 29.3397 21.3904 28.5885C23.0585 27.8366 24.8176 26.7452 25.2991 26.1631C26.0292 25.2812 25.572 25.0934 22.5535 25.0341C20.2114 24.9875 17.1588 24.1402 13.906 22.6319C11.1416 21.3505 8.8798 20.4108 8.8798 20.5437Z" fill="#F94E1C"/>
<path d="M37.5109 21V9.48H42.3749C42.4869 9.48 42.6363 9.48533 42.8229 9.496C43.0149 9.50133 43.1856 9.51733 43.3349 9.544C44.0229 9.65067 44.5856 9.87733 45.0229 10.224C45.4656 10.5707 45.7909 11.008 45.9989 11.536C46.2069 12.0587 46.3109 12.6427 46.3109 13.288C46.3109 14.2533 46.0709 15.08 45.5909 15.768C45.1109 16.4507 44.3589 16.872 43.3349 17.032L42.3749 17.096H39.6869V21H37.5109ZM44.0069 21L41.7349 16.312L43.9749 15.88L46.4709 21H44.0069ZM39.6869 15.064H42.2789C42.3909 15.064 42.5136 15.0587 42.6469 15.048C42.7803 15.0373 42.9029 15.016 43.0149 14.984C43.3083 14.904 43.5349 14.7707 43.6949 14.584C43.8549 14.392 43.9643 14.1813 44.0229 13.952C44.0869 13.7173 44.1189 13.496 44.1189 13.288C44.1189 13.08 44.0869 12.8613 44.0229 12.632C43.9643 12.3973 43.8549 12.1867 43.6949 12C43.5349 11.808 43.3083 11.672 43.0149 11.592C42.9029 11.56 42.7803 11.5387 42.6469 11.528C42.5136 11.5173 42.3909 11.512 42.2789 11.512H39.6869V15.064ZM47.6697 21L51.1897 9.48H54.4377L57.9577 21H55.7177L52.5817 10.84H52.9977L49.9097 21H47.6697ZM49.7817 18.6V16.568H55.8617V18.6H49.7817ZM59.6316 21V9.48H63.3596C63.4502 9.48 63.6369 9.48267 63.9196 9.488C64.2022 9.49333 64.4742 9.512 64.7356 9.544C65.6636 9.656 66.4502 9.97867 67.0956 10.512C67.7409 11.0453 68.2316 11.7227 68.5676 12.544C68.9036 13.3653 69.0716 14.264 69.0716 15.24C69.0716 16.216 68.9036 17.1147 68.5676 17.936C68.2316 18.7573 67.7409 19.4347 67.0956 19.968C66.4502 20.5013 65.6636 20.824 64.7356 20.936C64.4742 20.968 64.2022 20.9867 63.9196 20.992C63.6369 20.9973 63.4502 21 63.3596 21H59.6316ZM61.8396 18.952H63.3596C63.5036 18.952 63.6982 18.9493 63.9436 18.944C64.1889 18.9333 64.4102 18.9093 64.6076 18.872C65.1089 18.7707 65.5169 18.536 65.8316 18.168C66.1516 17.8 66.3862 17.3573 66.5356 16.84C66.6902 16.3227 66.7676 15.7893 66.7676 15.24C66.7676 14.664 66.6876 14.1173 66.5276 13.6C66.3729 13.0827 66.1356 12.6453 65.8156 12.288C65.4956 11.9307 65.0929 11.704 64.6076 11.608C64.4102 11.5653 64.1889 11.5413 63.9436 11.536C63.6982 11.5307 63.5036 11.528 63.3596 11.528H61.8396V18.952ZM71.3909 21V9.48H73.5669V21H71.3909ZM75.4053 21L78.9253 9.48H82.1733L85.6933 21H83.4533L80.3173 10.84H80.7333L77.6453 21H75.4053ZM77.5173 18.6V16.568H83.5973V18.6H77.5173ZM87.3672 21V9.48H89.5752L94.5832 17.16V9.48H96.7912V21H94.5832L89.5752 13.32V21H87.3672ZM104.207 21.24C103.055 21.24 102.061 20.9893 101.223 20.488C100.391 19.9867 99.7488 19.2853 99.2954 18.384C98.8474 17.4827 98.6234 16.4347 98.6234 15.24C98.6234 14.0453 98.8474 12.9973 99.2954 12.096C99.7488 11.1947 100.391 10.4933 101.223 9.992C102.061 9.49067 103.055 9.24 104.207 9.24C105.53 9.24 106.639 9.568 107.535 10.224C108.437 10.88 109.071 11.768 109.439 12.888L107.247 13.496C107.034 12.7973 106.674 12.256 106.167 11.872C105.661 11.4827 105.007 11.288 104.207 11.288C103.477 11.288 102.866 11.4507 102.375 11.776C101.89 12.1013 101.525 12.56 101.279 13.152C101.034 13.744 100.911 14.44 100.911 15.24C100.911 16.04 101.034 16.736 101.279 17.328C101.525 17.92 101.89 18.3787 102.375 18.704C102.866 19.0293 103.477 19.192 104.207 19.192C105.007 19.192 105.661 18.9973 106.167 18.608C106.674 18.2187 107.034 17.6773 107.247 16.984L109.439 17.592C109.071 18.712 108.437 19.6 107.535 20.256C106.639 20.912 105.53 21.24 104.207 21.24ZM111.441 21V9.48H118.961V11.512H113.617V13.976H118.001V16.008H113.617V18.968H118.961V21H111.441ZM123.79 21V11.512H120.158V9.48H129.598V11.512H125.966V21H123.79ZM131.124 21V9.48H138.644V11.512H133.3V13.976H137.684V16.008H133.3V18.968H138.644V21H131.124ZM140.002 21L143.522 9.48H146.77L150.29 21H148.05L144.914 10.84H145.33L142.242 21H140.002ZM142.114 18.6V16.568H148.194V18.6H142.114ZM151.963 21V9.48H153.915L157.723 17.128L161.531 9.48H163.483V21H161.451V14.12L158.107 21H157.339L153.995 14.12V21H151.963Z" fill="#28303F"/>
</svg>
