<svg width="188" height="188" viewBox="0 0 188 188" fill="none" xmlns="http://www.w3.org/2000/svg">
<rect width="188" height="188" rx="94" fill="white"/>
<path fill-rule="evenodd" clip-rule="evenodd" d="M73.4041 35.5729C68.2331 37.4016 60.8807 41.295 57.0667 44.2228C50.2001 49.4977 50.2848 49.5692 65.7666 51.3854C74.3694 52.3945 89.8293 57.2255 100.128 62.1217C113.547 68.5019 118.847 69.8308 118.847 66.816C118.847 64.503 116.929 58.0575 114.581 52.4938C112.234 46.9332 107.903 39.991 104.954 37.0694C102.008 34.151 95.8183 31.8721 91.202 32.0056C86.5825 32.1391 78.5752 33.7473 73.4041 35.5729ZM116.847 48.0602C121.172 56.6821 123.867 69.0453 124.629 83.74C125.318 96.9942 127.03 105.47 128.797 104.387C130.446 103.378 135.933 96.8918 140.992 89.9744C146.05 83.0601 150.187 74.224 150.187 70.343C150.187 66.459 146.492 58.9362 141.979 53.6209C137.463 48.3055 129.778 41.9097 124.899 39.4104C120.016 36.9111 114.719 34.8651 113.127 34.8651C111.535 34.8651 113.209 40.8013 116.847 48.0602ZM52.2216 56.0053C46.4958 56.6728 42.0267 59.9825 38.9899 65.7946C36.4702 70.6256 33.5587 79.9616 32.5182 86.5436C31.4778 93.1257 32.0544 102.005 33.7969 106.274C35.5394 110.543 36.1349 114.462 36.2446 111.863C36.3512 109.264 41.635 99.4501 46.8593 93.1723C52.0805 86.8945 63.3629 77.2604 71.928 71.7619C80.4932 66.2634 89.9059 61.0086 89.1162 60.2231C88.3233 59.4407 79.2772 58.0327 72.746 56.9523C66.2116 55.8749 56.9758 55.4464 52.2216 56.0053ZM146.134 89.4807C141.292 96.8638 128.982 108.392 118.599 115.259L99.8173 127.685L110.253 129.625C115.995 130.69 126.199 131.112 132.934 130.563C142.872 129.749 146.272 127.697 150.979 119.684C155.145 112.592 156.514 105.054 155.834 92.9674L154.888 76.1272L146.134 89.4807ZM51.8298 93.995C46.9815 99.7016 41.7196 107.743 40.1401 111.863C37.9557 117.554 38.7956 121.81 43.6376 129.569C47.1414 135.189 53.519 142.063 57.8094 144.848C62.0967 147.63 69.2485 151.281 73.6956 152.954L81.7812 156L74.8238 144.848C70.6117 138.098 66.4436 123.816 64.256 108.656L60.6457 83.6158L51.8298 93.995ZM68.7032 116.914C68.7032 117.464 70.8562 123.956 73.4856 131.345C76.1181 138.731 80.5684 147.291 83.3733 150.362C86.2346 153.491 92.7439 155.919 98.1782 155.882C103.512 155.845 113.519 153.271 120.414 150.166C127.309 147.058 134.579 142.547 136.569 140.141C139.587 136.496 137.698 135.72 125.221 135.474C115.54 135.282 102.923 131.78 89.4783 125.545C78.0518 120.249 68.7032 116.365 68.7032 116.914Z" fill="#F94E1C"/>
</svg>
