<svg width="26" height="26" viewBox="0 0 26 26" fill="none" xmlns="http://www.w3.org/2000/svg">
<path d="M10.8333 5.75C10.4191 5.75 10.0833 6.08579 10.0833 6.5C10.0833 6.91421 10.4191 7.25 10.8333 7.25V5.75ZM17.3333 7.25C17.7475 7.25 18.0833 6.91421 18.0833 6.5C18.0833 6.08579 17.7475 5.75 17.3333 5.75V7.25ZM10.8333 14.4167C10.4191 14.4167 10.0833 14.7525 10.0833 15.1667C10.0833 15.5809 10.4191 15.9167 10.8333 15.9167V14.4167ZM17.3333 15.9167C17.7475 15.9167 18.0833 15.5809 18.0833 15.1667C18.0833 14.7525 17.7475 14.4167 17.3333 14.4167V15.9167ZM10.8333 10.0833C10.4191 10.0833 10.0833 10.4191 10.0833 10.8333C10.0833 11.2475 10.4191 11.5833 10.8333 11.5833V10.0833ZM23.8333 11.5833C24.2475 11.5833 24.5833 11.2475 24.5833 10.8333C24.5833 10.4191 24.2475 10.0833 23.8333 10.0833V11.5833ZM10.8333 18.75C10.4191 18.75 10.0833 19.0858 10.0833 19.5C10.0833 19.9142 10.4191 20.25 10.8333 20.25V18.75ZM23.8333 20.25C24.2475 20.25 24.5833 19.9142 24.5833 19.5C24.5833 19.0858 24.2475 18.75 23.8333 18.75V20.25ZM3.25 7.25H5.41667V5.75H3.25V7.25ZM5.75 7.58333V9.75H7.25V7.58333H5.75ZM5.41667 10.0833H3.25V11.5833H5.41667V10.0833ZM2.91667 9.75V7.58333H1.41667V9.75H2.91667ZM3.25 10.0833C3.06591 10.0833 2.91667 9.93409 2.91667 9.75H1.41667C1.41667 10.7625 2.23748 11.5833 3.25 11.5833V10.0833ZM5.75 9.75C5.75 9.93409 5.60076 10.0833 5.41667 10.0833V11.5833C6.42919 11.5833 7.25 10.7625 7.25 9.75H5.75ZM5.41667 7.25C5.60076 7.25 5.75 7.39924 5.75 7.58333H7.25C7.25 6.57081 6.42919 5.75 5.41667 5.75V7.25ZM3.25 5.75C2.23748 5.75 1.41667 6.57081 1.41667 7.58333H2.91667C2.91667 7.39924 3.06591 7.25 3.25 7.25V5.75ZM3.25 15.9167H5.41667V14.4167H3.25V15.9167ZM5.75 16.25V18.4167H7.25V16.25H5.75ZM5.41667 18.75H3.25V20.25H5.41667V18.75ZM2.91667 18.4167V16.25H1.41667V18.4167H2.91667ZM3.25 18.75C3.06591 18.75 2.91667 18.6008 2.91667 18.4167H1.41667C1.41667 19.4292 2.23748 20.25 3.25 20.25V18.75ZM5.75 18.4167C5.75 18.6008 5.60076 18.75 5.41667 18.75V20.25C6.42919 20.25 7.25 19.4292 7.25 18.4167H5.75ZM5.41667 15.9167C5.60076 15.9167 5.75 16.0659 5.75 16.25H7.25C7.25 15.2375 6.42919 14.4167 5.41667 14.4167V15.9167ZM3.25 14.4167C2.23748 14.4167 1.41667 15.2375 1.41667 16.25H2.91667C2.91667 16.0659 3.06591 15.9167 3.25 15.9167V14.4167ZM10.8333 7.25H17.3333V5.75H10.8333V7.25ZM10.8333 15.9167H17.3333V14.4167H10.8333V15.9167ZM10.8333 11.5833H23.8333V10.0833H10.8333V11.5833ZM10.8333 20.25H23.8333V18.75H10.8333V20.25Z" fill="#28303F"/>
</svg>
